<?xml version="1.0" encoding="UTF-8" standalone="no"?>
<!-- Created with Inkscape (http://www.inkscape.org/) -->

<svg
   xmlns:dc="http://purl.org/dc/elements/1.1/"
   xmlns:cc="http://creativecommons.org/ns#"
   xmlns:rdf="http://www.w3.org/1999/02/22-rdf-syntax-ns#"
   xmlns:svg="http://www.w3.org/2000/svg"
   xmlns="http://www.w3.org/2000/svg"
   xmlns:xlink="http://www.w3.org/1999/xlink"
   xmlns:sodipodi="http://sodipodi.sourceforge.net/DTD/sodipodi-0.dtd"
   xmlns:inkscape="http://www.inkscape.org/namespaces/inkscape"
   width="8599.6318"
   height="7567.0508"
   viewBox="0 0 8599.6322 7567.0513"
   id="svg2"
   version="1.1"
   inkscape:version="0.92.2 5c3e80d, 2017-08-06"
   sodipodi:docname="LiPDverse_logo.svg"
   inkscape:export-filename="/Users/nicholas/Dropbox/LiPD/logo/LiPDverse_logo1.png"
   inkscape:export-xdpi="54.009998"
   inkscape:export-ydpi="54.009998">
  <defs
     id="defs4">
    <clipPath
       clipPathUnits="userSpaceOnUse"
       id="clipPath6982">
      <rect
         style="opacity:1;fill:#ffffff;fill-opacity:1;stroke:#ffffff;stroke-width:0.46328342;stroke-miterlimit:10;stroke-dasharray:none;stroke-opacity:1"
         id="rect6984"
         width="8619.5039"
         height="7567.0508"
         x="-2009.7792"
         y="-4402.043" />
    </clipPath>
  </defs>
  <sodipodi:namedview
     id="base"
     pagecolor="#ffffff"
     bordercolor="#666666"
     borderopacity="1.0"
     inkscape:pageopacity="1"
     inkscape:pageshadow="2"
     inkscape:zoom="0.082711677"
     inkscape:cx="4395.1158"
     inkscape:cy="3824.2494"
     inkscape:document-units="px"
     inkscape:current-layer="layer1"
     showgrid="false"
     inkscape:window-width="1431"
     inkscape:window-height="847"
     inkscape:window-x="6"
     inkscape:window-y="717"
     inkscape:window-maximized="0"
     fit-margin-top="-2.7755576e-17"
     fit-margin-left="0"
     fit-margin-right="0"
     fit-margin-bottom="0"
     units="px" />
  <metadata
     id="metadata7">
    <rdf:RDF>
      <cc:Work
         rdf:about="">
        <dc:format>image/svg+xml</dc:format>
        <dc:type
           rdf:resource="http://purl.org/dc/dcmitype/StillImage" />
        <dc:title></dc:title>
      </cc:Work>
    </rdf:RDF>
  </metadata>
  <g
     inkscape:label="Layer 1"
     inkscape:groupmode="layer"
     id="layer1"
     transform="translate(2009.7792,4402.043)">
    <g
       id="g6978"
       clip-path="url(#clipPath6982)">
      <rect
         y="-4402.043"
         x="-2009.7792"
         height="7567.0508"
         width="8598.8271"
         id="rect1110"
         style="opacity:1;fill:#000000;fill-opacity:1;stroke:#ffffff;stroke-width:1.6094563;stroke-miterlimit:10;stroke-dasharray:none;stroke-opacity:1" />
      <text
         xml:space="preserve"
         style="font-style:normal;font-variant:normal;font-weight:normal;font-stretch:normal;font-size:44.88176727px;line-height:0%;font-family:sans-serif;-inkscape-font-specification:sans-serif;letter-spacing:0px;word-spacing:0px;fill:#ffffff;fill-opacity:1;stroke:none;stroke-width:3.74014735px;stroke-linecap:butt;stroke-linejoin:miter;stroke-opacity:1"
         x="1380.1783"
         y="-123.74901"
         id="text854"><tspan
           sodipodi:role="line"
           id="tspan852"
           x="1380.1783"
           y="-123.74901"
           style="font-style:normal;font-variant:normal;font-weight:bold;font-stretch:normal;font-size:2337.5925293px;line-height:1.25;font-family:'Snell Roundhand';-inkscape-font-specification:'Snell Roundhand Bold';fill:#ffffff;fill-opacity:1;stroke-width:3.74014735px">verse</tspan></text>
      <g
         transform="matrix(0.33384727,0,0,0.33384727,-1329.3319,597.33257)"
         id="g1144">
        <text
           xml:space="preserve"
           style="font-style:normal;font-weight:normal;font-size:5.79387569px;line-height:0%;font-family:sans-serif;letter-spacing:0px;word-spacing:0px;fill:#ffffff;fill-opacity:1;stroke:none;stroke-width:0.48282295px;stroke-linecap:butt;stroke-linejoin:miter;stroke-opacity:1"
           x="918.46326"
           y="2067.5151"
           id="text3417"
           transform="scale(0.89234898,1.1206378)"><tspan
             style="font-size:521.40368652px;line-height:1.25;font-family:sans-serif;fill:#ffffff;fill-opacity:1;stroke-width:0.48282295px"
             sodipodi:role="line"
             id="tspan3419"
             x="918.46326"
             y="2067.5151">{</tspan></text>
        <text
           transform="scale(-0.89234898,-1.1206378)"
           id="text4323"
           y="-1771.1704"
           x="-1839.104"
           style="font-style:normal;font-weight:normal;font-size:5.79387569px;line-height:0%;font-family:sans-serif;letter-spacing:0px;word-spacing:0px;fill:#ffffff;fill-opacity:1;stroke:none;stroke-width:0.48282295px;stroke-linecap:butt;stroke-linejoin:miter;stroke-opacity:1"
           xml:space="preserve"><tspan
             style="font-size:521.40368652px;line-height:1.25;font-family:sans-serif;fill:#ffffff;fill-opacity:1;stroke-width:0.48282295px"
             y="-1771.1704"
             x="-1839.104"
             id="tspan4325"
             sodipodi:role="line">{</tspan></text>
        <path
           sodipodi:nodetypes="cccccc"
           style="fill:#f5f5f5;fill-opacity:1;stroke-width:1.11893106;image-rendering:optimizeQuality;shape-rendering:geometricPrecision;text-rendering:geometricPrecision"
           inkscape:connector-curvature="0"
           id="path10"
           d="m 1228.5939,2107.3074 c 12.5897,-18.5477 20.6966,-36.942 42.3684,-51.9795 18.7379,-15.1086 53.4541,-21.6448 56.6987,-20.2935 -14.9932,-28.0176 -13.1736,-21.8262 -31.0648,-53.037 0,0 -12.6647,31.7316 -43.9142,51.6425 -37.613,24.5333 -61.4632,25.339 -61.4632,25.339" />
        <g
           id="g4238"
           transform="matrix(1.118931,0,0,1.118931,998.31396,1619.9741)">
          <circle
             style="fill:#f2f2f2;fill-opacity:1;stroke:#000000;stroke-width:5;stroke-miterlimit:4;stroke-dasharray:none;stroke-opacity:1"
             id="circle4240"
             cx="319.95563"
             cy="325.41147"
             r="51.052601" />
          <path
             id="path4242"
             d="m 291.57058,300.2395 c -14.17639,15.50549 -14.47153,38.30957 -0.81866,51.21641 -6.74889,-6.50152 -6.60426,-20.03005 0.21661,-32.97354 0.88017,-1.16353 3.42319,-3.90091 7.13694,-2.65361 0.36974,0.1276 0.61907,0.15836 0.7637,0.13873 0.8396,0.17996 1.70341,0.28794 2.59079,0.24671 5.64294,-0.25653 10.00455,-5.02845 9.74999,-10.66877 -0.11714,-2.53059 -1.16615,-4.77455 -2.78254,-6.49171 13.08485,-8.57729 28.11262,-9.56545 34.26861,-3.94018 l 0.23232,0.0196 c -14.0586,-12.84664 -37.05442,-10.55295 -51.35776,5.10632 z"
             inkscape:connector-curvature="0"
             style="fill:#cccccc;stroke:#cccccc;stroke-width:0.65440565;image-rendering:optimizeQuality;shape-rendering:geometricPrecision;text-rendering:geometricPrecision" />
        </g>
        <path
           d="m 1231.143,2199.5208 c 12.5897,18.5477 20.6966,36.942 42.3684,51.9795 18.7379,15.1086 53.4541,21.6448 56.6987,20.2935 -14.9932,28.0176 -13.1736,21.8262 -31.0648,53.037 0,0 -12.6647,-31.7316 -43.9142,-51.6425 -37.613,-24.5332 -61.4632,-25.339 -61.4632,-25.339"
           id="path4274"
           inkscape:connector-curvature="0"
           style="fill:#f5f5f5;fill-opacity:1;stroke-width:1.11893106;image-rendering:optimizeQuality;shape-rendering:geometricPrecision;text-rendering:geometricPrecision"
           sodipodi:nodetypes="cccccc" />
        <g
           transform="matrix(1.118931,0,0,1.118931,995.76486,1959.8545)"
           id="g4276">
          <circle
             r="51.052601"
             cy="325.41147"
             cx="319.95563"
             id="circle4278"
             style="fill:#f2f2f2;fill-opacity:1;stroke:#000000;stroke-width:5;stroke-miterlimit:4;stroke-dasharray:none;stroke-opacity:1" />
          <path
             style="fill:#cccccc;stroke:#cccccc;stroke-width:0.65440565;image-rendering:optimizeQuality;shape-rendering:geometricPrecision;text-rendering:geometricPrecision"
             inkscape:connector-curvature="0"
             d="m 291.57058,300.2395 c -14.17639,15.50549 -14.47153,38.30957 -0.81866,51.21641 -6.74889,-6.50152 -6.60426,-20.03005 0.21661,-32.97354 0.88017,-1.16353 3.42319,-3.90091 7.13694,-2.65361 0.36974,0.1276 0.61907,0.15836 0.7637,0.13873 0.8396,0.17996 1.70341,0.28794 2.59079,0.24671 5.64294,-0.25653 10.00455,-5.02845 9.74999,-10.66877 -0.11714,-2.53059 -1.16615,-4.77455 -2.78254,-6.49171 13.08485,-8.57729 28.11262,-9.56545 34.26861,-3.94018 l 0.23232,0.0196 c -14.0586,-12.84664 -37.05442,-10.55295 -51.35776,5.10632 z"
             id="path4280" />
        </g>
        <circle
           style="fill:#ffffff;fill-opacity:1;stroke:#000000;stroke-width:11.00956154;stroke-miterlimit:4;stroke-dasharray:none;stroke-opacity:1"
           id="circle4246"
           cx="1127.7318"
           cy="2151.1116"
           r="112.41335" />
        <path
           id="path4248"
           d="m 1058.2029,2090.3213 c -35.5764,38.9118 -36.317,96.1398 -2.0545,128.5302 -16.9366,-16.3159 -16.5737,-50.2664 0.5436,-82.7488 2.2089,-2.9199 8.5907,-9.7895 17.9106,-6.6594 0.9278,0.3203 1.5535,0.3975 1.9165,0.3482 2.107,0.4516 4.2748,0.7226 6.5017,0.6191 14.1613,-0.6437 25.107,-12.6191 24.4681,-26.7738 -0.2939,-6.3506 -2.9265,-11.982 -6.9829,-16.2913 32.8371,-21.5251 70.5501,-24.005 85.9988,-9.8881 l 0.5831,0.049 c -35.2808,-32.2394 -92.99,-26.4832 -128.885,12.8145 z"
           inkscape:connector-curvature="0"
           style="fill:#c5c5c5;fill-opacity:1;stroke:#cccccc;stroke-width:1.64226449;image-rendering:optimizeQuality;shape-rendering:geometricPrecision;text-rendering:geometricPrecision" />
      </g>
      <use
         height="100%"
         width="100%"
         y="0"
         x="0"
         transform="matrix(0.30061602,0.44706213,-0.44706213,0.30061602,-433.21137,-3036.875)"
         xlink:href="#g1144"
         inkscape:spray-origin="#g1144"
         id="use6553" />
      <use
         height="100%"
         width="100%"
         y="0"
         x="0"
         transform="matrix(-0.87795794,-0.26504753,0.26504753,-0.87795794,-1136.7466,-1321.2938)"
         xlink:href="#g1144"
         inkscape:spray-origin="#g1144"
         id="use6555" />
      <use
         height="100%"
         width="100%"
         y="0"
         x="0"
         transform="matrix(0.86221303,-0.0620054,0.0620054,0.86221303,221.41946,-4431.3961)"
         xlink:href="#g1144"
         inkscape:spray-origin="#g1144"
         id="use6557" />
      <use
         height="100%"
         width="100%"
         y="0"
         x="0"
         transform="matrix(1.3312234,-0.02319991,0.02319991,1.3312234,1609.9001,-4650.9166)"
         xlink:href="#g1144"
         inkscape:spray-origin="#g1144"
         id="use6559" />
      <use
         height="100%"
         width="100%"
         y="0"
         x="0"
         transform="matrix(0.64049207,-1.2238265,1.2238265,0.64049207,-2074.7433,-6015.4158)"
         xlink:href="#g1144"
         inkscape:spray-origin="#g1144"
         id="use6561" />
      <use
         height="100%"
         width="100%"
         y="0"
         x="0"
         transform="matrix(1.1654311,0.00814756,-0.00814756,1.1654311,208.57914,-3749.5239)"
         xlink:href="#g1144"
         inkscape:spray-origin="#g1144"
         id="use6563" />
      <use
         height="100%"
         width="100%"
         y="0"
         x="0"
         transform="matrix(0.17673638,-0.60347956,0.60347956,0.17673638,-160.1237,-3140.2474)"
         xlink:href="#g1144"
         inkscape:spray-origin="#g1144"
         id="use6565" />
      <use
         height="100%"
         width="100%"
         y="0"
         x="0"
         transform="matrix(1.1488986,-0.73734296,0.73734296,1.1488986,632.89982,-4060.8639)"
         xlink:href="#g1144"
         inkscape:spray-origin="#g1144"
         id="use6567" />
      <use
         height="100%"
         width="100%"
         y="0"
         x="0"
         transform="matrix(0.01499815,-0.6356852,0.6356852,0.01499815,571.03927,-3278.805)"
         xlink:href="#g1144"
         inkscape:spray-origin="#g1144"
         id="use6569" />
      <use
         height="100%"
         width="100%"
         y="0"
         x="0"
         transform="matrix(0.2898596,1.0454925,-1.0454925,0.2898596,1809.9723,-3180.6278)"
         xlink:href="#g1144"
         inkscape:spray-origin="#g1144"
         id="use6571" />
      <use
         height="100%"
         width="100%"
         y="0"
         x="0"
         transform="matrix(0.61613319,-0.03154249,0.03154249,0.61613319,1568.3507,-3018.8024)"
         xlink:href="#g1144"
         inkscape:spray-origin="#g1144"
         id="use6573" />
      <use
         height="100%"
         width="100%"
         y="0"
         x="0"
         transform="matrix(1.0739399,-0.01611887,0.01611887,1.0739399,2024.2634,-5283.7053)"
         xlink:href="#g1144"
         inkscape:spray-origin="#g1144"
         id="use6575" />
      <use
         height="100%"
         width="100%"
         y="0"
         x="0"
         transform="matrix(1.0850527,0.26445544,-0.26445544,1.0850527,2254.9106,-4496.5416)"
         xlink:href="#g1144"
         inkscape:spray-origin="#g1144"
         id="use6577" />
      <use
         height="100%"
         width="100%"
         y="0"
         x="0"
         transform="matrix(1.0445724,0.93313817,-0.93313817,1.0445724,3685.2937,-3619.3508)"
         xlink:href="#g1144"
         inkscape:spray-origin="#g1144"
         id="use6579" />
      <use
         height="100%"
         width="100%"
         y="0"
         x="0"
         transform="matrix(0.64781898,-0.38731504,0.38731504,0.64781898,2299.2842,-4298.8609)"
         xlink:href="#g1144"
         inkscape:spray-origin="#g1144"
         id="use6581" />
      <use
         height="100%"
         width="100%"
         y="0"
         x="0"
         transform="matrix(-0.5066315,-1.1724095,1.1724095,-0.5066315,-176.01522,-4110.2199)"
         xlink:href="#g1144"
         inkscape:spray-origin="#g1144"
         id="use6583" />
      <use
         height="100%"
         width="100%"
         y="0"
         x="0"
         transform="matrix(-0.29986276,-1.0878622,1.0878622,-0.29986276,352.68431,-2918.3997)"
         xlink:href="#g1144"
         inkscape:spray-origin="#g1144"
         id="use6585" />
      <use
         height="100%"
         width="100%"
         y="0"
         x="0"
         transform="matrix(1.0030136,0.9393201,-0.9393201,1.0030136,5624.6006,-2766.7681)"
         xlink:href="#g1144"
         inkscape:spray-origin="#g1144"
         id="use6587" />
      <use
         height="100%"
         width="100%"
         y="0"
         x="0"
         transform="matrix(-0.13362485,-0.44712405,0.44712405,-0.13362485,2389.3747,-2641.9825)"
         xlink:href="#g1144"
         inkscape:spray-origin="#g1144"
         id="use6589" />
      <use
         height="100%"
         width="100%"
         y="0"
         x="0"
         transform="matrix(0.52886879,-1.2880569,1.2880569,0.52886879,1913.752,-4364.1847)"
         xlink:href="#g1144"
         inkscape:spray-origin="#g1144"
         id="use6591" />
      <use
         height="100%"
         width="100%"
         y="0"
         x="0"
         transform="matrix(0.10678669,0.8708928,-0.8708928,0.10678669,4377.8228,-2293.2742)"
         xlink:href="#g1144"
         inkscape:spray-origin="#g1144"
         id="use6593" />
      <use
         height="100%"
         width="100%"
         y="0"
         x="0"
         transform="matrix(-0.73585831,-0.32210916,0.32210916,-0.73585831,1581.7459,-1783.262)"
         xlink:href="#g1144"
         inkscape:spray-origin="#g1144"
         id="use6595" />
      <use
         height="100%"
         width="100%"
         y="0"
         x="0"
         transform="matrix(0.47234735,1.3084184,-1.3084184,0.47234735,1555.6819,-992.98965)"
         xlink:href="#g1144"
         inkscape:spray-origin="#g1144"
         id="use6597" />
      <use
         height="100%"
         width="100%"
         y="0"
         x="0"
         transform="matrix(-1.0383785,0.86793918,-0.86793918,-1.0383785,3169.1505,486.50765)"
         xlink:href="#g1144"
         inkscape:spray-origin="#g1144"
         id="use6599" />
      <use
         height="100%"
         width="100%"
         y="0"
         x="0"
         transform="matrix(0.1917142,-0.57504618,0.57504618,0.1917142,3001.1902,-3750.8921)"
         xlink:href="#g1144"
         inkscape:spray-origin="#g1144"
         id="use6601" />
      <use
         height="100%"
         width="100%"
         y="0"
         x="0"
         transform="matrix(0.93611174,-0.16523485,0.16523485,0.93611174,4496.6876,-4569.1977)"
         xlink:href="#g1144"
         inkscape:spray-origin="#g1144"
         id="use6603" />
      <use
         height="100%"
         width="100%"
         y="0"
         x="0"
         transform="matrix(-0.42897458,-0.92502421,0.92502421,-0.42897458,3984.1232,-3364.2272)"
         xlink:href="#g1144"
         inkscape:spray-origin="#g1144"
         id="use6605" />
      <use
         height="100%"
         width="100%"
         y="0"
         x="0"
         transform="matrix(-0.5258059,0.05355071,-0.05355071,-0.5258059,3907.5076,-2612.865)"
         xlink:href="#g1144"
         inkscape:spray-origin="#g1144"
         id="use6607" />
      <use
         height="100%"
         width="100%"
         y="0"
         x="0"
         transform="matrix(-0.04037108,0.67650021,-0.67650021,-0.04037108,6338.294,-1904.5355)"
         xlink:href="#g1144"
         inkscape:spray-origin="#g1144"
         id="use6609" />
      <use
         height="100%"
         width="100%"
         y="0"
         x="0"
         transform="matrix(-0.08867614,0.85162581,-0.85162581,-0.08867614,5710.3654,-2485.6153)"
         xlink:href="#g1144"
         inkscape:spray-origin="#g1144"
         id="use6611" />
      <use
         height="100%"
         width="100%"
         y="0"
         x="0"
         transform="matrix(1.3938496,-0.21989209,0.21989209,1.3938496,5330.0576,-4428.6921)"
         xlink:href="#g1144"
         inkscape:spray-origin="#g1144"
         id="use6613" />
      <use
         height="100%"
         width="100%"
         y="0"
         x="0"
         transform="matrix(-0.50130661,0.12898085,-0.12898085,-0.50130661,-1187.466,76.905902)"
         xlink:href="#g1144"
         inkscape:spray-origin="#g1144"
         id="use6615" />
      <use
         height="100%"
         width="100%"
         y="0"
         x="0"
         transform="matrix(-0.49721613,1.2198489,-1.2198489,-0.49721613,103.7551,1700.8784)"
         xlink:href="#g1144"
         inkscape:spray-origin="#g1144"
         id="use6617" />
      <use
         height="100%"
         width="100%"
         y="0"
         x="0"
         transform="matrix(0.51061119,0.58537853,-0.58537853,0.51061119,432.15927,-999.79728)"
         xlink:href="#g1144"
         inkscape:spray-origin="#g1144"
         id="use6619" />
      <use
         height="100%"
         width="100%"
         y="0"
         x="0"
         transform="matrix(-0.00797944,-1.1541284,1.1541284,-0.00797944,-405.06225,-1262.5045)"
         xlink:href="#g1144"
         inkscape:spray-origin="#g1144"
         id="use6621" />
      <use
         height="100%"
         width="100%"
         y="0"
         x="0"
         transform="matrix(0.49349942,0.91845729,-0.91845729,0.49349942,1052.142,-679.2519)"
         xlink:href="#g1144"
         inkscape:spray-origin="#g1144"
         id="use6623" />
      <use
         height="100%"
         width="100%"
         y="0"
         x="0"
         transform="matrix(0.42431784,0.18112557,-0.18112557,0.42431784,234.9587,-516.92341)"
         xlink:href="#g1144"
         inkscape:spray-origin="#g1144"
         id="use6625" />
      <use
         height="100%"
         width="100%"
         y="0"
         x="0"
         transform="matrix(0.46719182,0.35245651,-0.35245651,0.46719182,1003.0689,-483.94058)"
         xlink:href="#g1144"
         inkscape:spray-origin="#g1144"
         id="use6627" />
      <use
         height="100%"
         width="100%"
         y="0"
         x="0"
         transform="matrix(0.33700434,-1.4136177,1.4136177,0.33700434,-930.68326,-2359.1867)"
         xlink:href="#g1144"
         inkscape:spray-origin="#g1144"
         id="use6629" />
      <use
         height="100%"
         width="100%"
         y="0"
         x="0"
         transform="matrix(-0.20069171,0.46147014,-0.46147014,-0.20069171,2117.8237,445.21705)"
         xlink:href="#g1144"
         inkscape:spray-origin="#g1144"
         id="use6633" />
      <use
         height="100%"
         width="100%"
         y="0"
         x="0"
         transform="matrix(-0.77909473,0.42472689,-0.42472689,-0.77909473,2511.1238,410.3986)"
         xlink:href="#g1144"
         inkscape:spray-origin="#g1144"
         id="use6635" />
      <use
         height="100%"
         width="100%"
         y="0"
         x="0"
         transform="matrix(-0.89528072,0.95540962,-0.95540962,-0.89528072,2103.5092,617.28449)"
         xlink:href="#g1144"
         inkscape:spray-origin="#g1144"
         id="use6637" />
      <use
         height="100%"
         width="100%"
         y="0"
         x="0"
         transform="matrix(0.12176258,-0.78701537,0.78701537,0.12176258,-223.1733,-675.5234)"
         xlink:href="#g1144"
         inkscape:spray-origin="#g1144"
         id="use6639" />
      <use
         height="100%"
         width="100%"
         y="0"
         x="0"
         transform="matrix(-0.7766899,0.2433796,-0.2433796,-0.7766899,1736.9696,-68.56637)"
         xlink:href="#g1144"
         inkscape:spray-origin="#g1144"
         id="use6641" />
      <use
         height="100%"
         width="100%"
         y="0"
         x="0"
         transform="matrix(-0.33990734,-0.49550881,0.49550881,-0.33990734,5345.965,-244.45333)"
         xlink:href="#g1144"
         inkscape:spray-origin="#g1144"
         id="use6645" />
      <use
         height="100%"
         width="100%"
         y="0"
         x="0"
         transform="matrix(-0.51494025,-0.13775858,0.13775858,-0.51494025,3455.4579,310.74668)"
         xlink:href="#g1144"
         inkscape:spray-origin="#g1144"
         id="use6647" />
      <use
         height="100%"
         width="100%"
         y="0"
         x="0"
         transform="matrix(0.65096187,0.44751608,-0.44751608,0.65096187,5819.7554,-1574.1746)"
         xlink:href="#g1144"
         inkscape:spray-origin="#g1144"
         id="use6649" />
      <use
         height="100%"
         width="100%"
         y="0"
         x="0"
         transform="matrix(0.17225697,-0.52015862,0.52015862,0.17225697,3209.1425,-2414.0983)"
         xlink:href="#g1144"
         inkscape:spray-origin="#g1144"
         id="use6651" />
      <use
         height="100%"
         width="100%"
         y="0"
         x="0"
         transform="matrix(-1.0235974,0.0442458,-0.0442458,-1.0235974,3711.1906,-304.40202)"
         xlink:href="#g1144"
         inkscape:spray-origin="#g1144"
         id="use6653" />
      <use
         height="100%"
         width="100%"
         y="0"
         x="0"
         transform="matrix(-0.3266092,0.38742117,-0.38742117,-0.3266092,3836.1642,690.22904)"
         xlink:href="#g1144"
         inkscape:spray-origin="#g1144"
         id="use6655" />
      <use
         height="100%"
         width="100%"
         y="0"
         x="0"
         transform="matrix(0.6040335,-1.0657122,1.0657122,0.6040335,2227.7813,-1610.5544)"
         xlink:href="#g1144"
         inkscape:spray-origin="#g1144"
         id="use6657" />
      <use
         height="100%"
         width="100%"
         y="0"
         x="0"
         transform="matrix(0.37920465,1.4168732,-1.4168732,0.37920465,7057.4751,-1218.6016)"
         xlink:href="#g1144"
         inkscape:spray-origin="#g1144"
         id="use6659" />
      <use
         height="100%"
         width="100%"
         y="0"
         x="0"
         transform="matrix(-0.22041962,-0.68844967,0.68844967,-0.22041962,2952.1697,-1515.2916)"
         xlink:href="#g1144"
         inkscape:spray-origin="#g1144"
         id="use6661" />
      <use
         height="100%"
         width="100%"
         y="0"
         x="0"
         transform="matrix(-0.29866444,0.44603027,-0.44603027,-0.29866444,5519.6116,-485.00038)"
         xlink:href="#g1144"
         inkscape:spray-origin="#g1144"
         id="use6663" />
      <use
         height="100%"
         width="100%"
         y="0"
         x="0"
         transform="matrix(-0.49905466,-0.6113694,0.6113694,-0.49905466,4914.6745,-970.0544)"
         xlink:href="#g1144"
         inkscape:spray-origin="#g1144"
         id="use6665" />
      <use
         height="100%"
         width="100%"
         y="0"
         x="0"
         transform="matrix(0.29789472,0.87897182,-0.87897182,0.29789472,7149.2046,-1668.3061)"
         xlink:href="#g1144"
         inkscape:spray-origin="#g1144"
         id="use6667" />
      <use
         height="100%"
         width="100%"
         y="0"
         x="0"
         transform="matrix(0.05587847,-0.61647731,0.61647731,0.05587847,4404.4471,-2278.7501)"
         xlink:href="#g1144"
         inkscape:spray-origin="#g1144"
         id="use6669" />
      <use
         height="100%"
         width="100%"
         y="0"
         x="0"
         transform="matrix(-0.23372684,-0.54072813,0.54072813,-0.23372684,4201.2067,-762.70944)"
         xlink:href="#g1144"
         inkscape:spray-origin="#g1144"
         id="use6671" />
      <use
         height="100%"
         width="100%"
         y="0"
         x="0"
         transform="matrix(0.52582313,-0.23209656,0.23209656,0.52582313,5991.0384,-2713.7613)"
         xlink:href="#g1144"
         inkscape:spray-origin="#g1144"
         id="use6675" />
      <use
         height="100%"
         width="100%"
         y="0"
         x="0"
         transform="matrix(-0.44469507,0.42574228,-0.42574228,-0.44469507,5219.9541,-1195.7215)"
         xlink:href="#g1144"
         inkscape:spray-origin="#g1144"
         id="use6677" />
      <use
         height="100%"
         width="100%"
         y="0"
         x="0"
         transform="matrix(-1.0401138,0.88163589,-0.88163589,-1.0401138,-1097.0702,2517.5882)"
         xlink:href="#g1144"
         inkscape:spray-origin="#g1144"
         id="use6679" />
      <use
         height="100%"
         width="100%"
         y="0"
         x="0"
         transform="matrix(0.03543999,0.77420722,-0.77420722,0.03543999,677.79984,1654.0003)"
         xlink:href="#g1144"
         inkscape:spray-origin="#g1144"
         id="use6681" />
      <use
         height="100%"
         width="100%"
         y="0"
         x="0"
         transform="matrix(0.47201316,-0.33158974,0.33158974,0.47201316,224.53606,-71.836211)"
         xlink:href="#g1144"
         inkscape:spray-origin="#g1144"
         id="use6683" />
      <use
         height="100%"
         width="100%"
         y="0"
         x="0"
         transform="matrix(0.82137367,0.67085029,-0.67085029,0.82137367,2040.6488,182.79206)"
         xlink:href="#g1144"
         inkscape:spray-origin="#g1144"
         id="use6685" />
      <use
         height="100%"
         width="100%"
         y="0"
         x="0"
         transform="matrix(0.42694322,-0.25133594,0.25133594,0.42694322,1561.9718,-508.94096)"
         xlink:href="#g1144"
         inkscape:spray-origin="#g1144"
         id="use6687" />
      <use
         height="100%"
         width="100%"
         y="0"
         x="0"
         transform="matrix(-1.0989529,0.67897528,-0.67897528,-1.0989529,1480.7312,2972.1641)"
         xlink:href="#g1144"
         inkscape:spray-origin="#g1144"
         id="use6689" />
      <use
         height="100%"
         width="100%"
         y="0"
         x="0"
         transform="matrix(0.66988939,0.0379647,-0.0379647,0.66988939,1382.8129,-132.00953)"
         xlink:href="#g1144"
         inkscape:spray-origin="#g1144"
         id="use6691" />
      <use
         height="100%"
         width="100%"
         y="0"
         x="0"
         transform="matrix(-0.99050472,-0.64573978,0.64573978,-0.99050472,220.5493,2422.2474)"
         xlink:href="#g1144"
         inkscape:spray-origin="#g1144"
         id="use6693" />
      <use
         height="100%"
         width="100%"
         y="0"
         x="0"
         transform="matrix(1.031165,-0.21209096,0.21209096,1.031165,3090.3368,-1092.0452)"
         xlink:href="#g1144"
         inkscape:spray-origin="#g1144"
         id="use6695" />
      <use
         height="100%"
         width="100%"
         y="0"
         x="0"
         transform="matrix(-0.56013247,0.18398668,-0.18398668,-0.56013247,2975.028,2561.6215)"
         xlink:href="#g1144"
         inkscape:spray-origin="#g1144"
         id="use6697" />
      <use
         height="100%"
         width="100%"
         y="0"
         x="0"
         transform="matrix(-1.1762399,0.91556177,-0.91556177,-1.1762399,3891.3695,3501.6096)"
         xlink:href="#g1144"
         inkscape:spray-origin="#g1144"
         id="use6699" />
      <use
         height="100%"
         width="100%"
         y="0"
         x="0"
         transform="matrix(1.2217568,0.88133981,-0.88133981,1.2217568,6144.3087,-345.32417)"
         xlink:href="#g1144"
         inkscape:spray-origin="#g1144"
         id="use6701" />
      <use
         height="100%"
         width="100%"
         y="0"
         x="0"
         transform="matrix(-0.39317991,0.6759881,-0.6759881,-0.39317991,6558.3653,1649.0855)"
         xlink:href="#g1144"
         inkscape:spray-origin="#g1144"
         id="use6703" />
      <use
         height="100%"
         width="100%"
         y="0"
         x="0"
         transform="matrix(0.44543565,-0.32390888,0.32390888,0.44543565,4798.7748,618.97511)"
         xlink:href="#g1144"
         inkscape:spray-origin="#g1144"
         id="use6705" />
      <use
         height="100%"
         width="100%"
         y="0"
         x="0"
         transform="matrix(-0.10549383,1.2681094,-1.2681094,-0.10549383,6539.4269,2008.2069)"
         xlink:href="#g1144"
         inkscape:spray-origin="#g1144"
         id="use6707" />
      <use
         height="100%"
         width="100%"
         y="0"
         x="0"
         transform="matrix(-0.7147583,-0.18806101,0.18806101,-0.7147583,4253.8789,1316.7443)"
         xlink:href="#g1144"
         inkscape:spray-origin="#g1144"
         id="use6709" />
      <use
         height="100%"
         width="100%"
         y="0"
         x="0"
         transform="matrix(0.60802165,-1.1749368,1.1749368,0.60802165,3623.0333,72.253742)"
         xlink:href="#g1144"
         inkscape:spray-origin="#g1144"
         id="use6711" />
      <use
         height="100%"
         width="100%"
         y="0"
         x="0"
         transform="matrix(0.88221775,-0.46821616,0.46821616,0.88221775,4560.7236,-166.05455)"
         xlink:href="#g1144"
         inkscape:spray-origin="#g1144"
         id="use6713" />
      <use
         height="100%"
         width="100%"
         y="0"
         x="0"
         transform="matrix(-0.80822461,-1.0975786,1.0975786,-0.80822461,2786.5716,2375.8925)"
         xlink:href="#g1144"
         inkscape:spray-origin="#g1144"
         id="use6715" />
      <use
         height="100%"
         width="100%"
         y="0"
         x="0"
         transform="matrix(0.26938972,0.80766724,-0.80766724,0.26938972,6151.9073,1942.5102)"
         xlink:href="#g1144"
         inkscape:spray-origin="#g1144"
         id="use6717" />
      <use
         height="100%"
         width="100%"
         y="0"
         x="0"
         transform="matrix(-0.84207113,-0.23586919,0.23586919,-0.84207113,4548.6575,2394.4934)"
         xlink:href="#g1144"
         inkscape:spray-origin="#g1144"
         id="use6719" />
      <use
         height="100%"
         width="100%"
         y="0"
         x="0"
         transform="matrix(0.03136436,-0.75774378,0.75774378,0.03136436,4217.7646,1618.8338)"
         xlink:href="#g1144"
         inkscape:spray-origin="#g1144"
         id="use6721" />
      <use
         height="100%"
         width="100%"
         y="0"
         x="0"
         transform="matrix(0.93962207,-0.05035161,0.05035161,0.93962207,6367.1835,811.99042)"
         xlink:href="#g1144"
         inkscape:spray-origin="#g1144"
         id="use6723" />
      <use
         height="100%"
         width="100%"
         y="0"
         x="0"
         transform="matrix(-1.333428,0.71541745,-0.71541745,-1.333428,5371.5428,5303.3927)"
         xlink:href="#g1144"
         inkscape:spray-origin="#g1144"
         id="use6725" />
      <use
         height="100%"
         width="100%"
         y="0"
         x="0"
         transform="matrix(-0.35702287,-1.0554061,1.0554061,-0.35702287,4460.6833,1000.7569)"
         xlink:href="#g1144"
         inkscape:spray-origin="#g1144"
         id="use6727" />
      <use
         height="100%"
         width="100%"
         y="0"
         x="0"
         transform="matrix(0.35303245,-0.56170773,0.56170773,0.35303245,5768.1689,1008.9575)"
         xlink:href="#g1144"
         inkscape:spray-origin="#g1144"
         id="use6729" />
      <use
         height="100%"
         width="100%"
         y="0"
         x="0"
         transform="matrix(0.89762565,0.03517879,-0.03517879,0.89762565,7056.7954,635.25686)"
         xlink:href="#g1144"
         inkscape:spray-origin="#g1144"
         id="use6733" />
      <use
         height="100%"
         width="100%"
         y="0"
         x="0"
         transform="matrix(1.0196874,-0.10170369,0.10170369,1.0196874,6387.0872,1547.0959)"
         xlink:href="#g1144"
         inkscape:spray-origin="#g1144"
         id="use6735" />
      <use
         height="100%"
         width="100%"
         y="0"
         x="0"
         transform="matrix(1.0435789,-0.42176861,0.42176861,1.0435789,104.39344,475.60425)"
         xlink:href="#g1144"
         inkscape:spray-origin="#g1144"
         id="use6737" />
      <use
         height="100%"
         width="100%"
         y="0"
         x="0"
         transform="matrix(-0.66401477,0.20513408,-0.20513408,-0.66401477,-1156.8195,4067.1075)"
         xlink:href="#g1144"
         inkscape:spray-origin="#g1144"
         id="use6739" />
      <use
         height="100%"
         width="100%"
         y="0"
         x="0"
         transform="matrix(-1.1716168,0.13195981,-0.13195981,-1.1716168,-2597.4879,4040.9767)"
         xlink:href="#g1144"
         inkscape:spray-origin="#g1144"
         id="use6741" />
      <use
         height="100%"
         width="100%"
         y="0"
         x="0"
         transform="matrix(0.51723879,-0.13169897,0.13169897,0.51723879,634.93887,1888.9294)"
         xlink:href="#g1144"
         inkscape:spray-origin="#g1144"
         id="use6743" />
      <use
         height="100%"
         width="100%"
         y="0"
         x="0"
         transform="matrix(0.06719495,-1.1912983,1.1912983,0.06719495,-2440.8617,1182.147)"
         xlink:href="#g1144"
         inkscape:spray-origin="#g1144"
         id="use6745" />
      <use
         height="100%"
         width="100%"
         y="0"
         x="0"
         transform="matrix(0.35478859,-1.4956321,1.4956321,0.35478859,-1322.3754,-233.92192)"
         xlink:href="#g1144"
         inkscape:spray-origin="#g1144"
         id="use6747" />
      <use
         height="100%"
         width="100%"
         y="0"
         x="0"
         transform="matrix(-0.49909779,-0.51351991,0.51351991,-0.49909779,-1278.0344,3161.3326)"
         xlink:href="#g1144"
         inkscape:spray-origin="#g1144"
         id="use6749" />
      <use
         height="100%"
         width="100%"
         y="0"
         x="0"
         transform="matrix(0.89801486,0.87831996,-0.87831996,0.89801486,2792.5917,2001.5747)"
         xlink:href="#g1144"
         inkscape:spray-origin="#g1144"
         id="use6751" />
      <use
         height="100%"
         width="100%"
         y="0"
         x="0"
         transform="matrix(-0.84635013,-0.88569486,0.88569486,-0.84635013,-526.97961,3290.2779)"
         xlink:href="#g1144"
         inkscape:spray-origin="#g1144"
         id="use6753" />
      <use
         height="100%"
         width="100%"
         y="0"
         x="0"
         transform="matrix(-0.70377269,-0.09770957,0.09770957,-0.70377269,401.71564,2121.3911)"
         xlink:href="#g1144"
         inkscape:spray-origin="#g1144"
         id="use6755" />
      <use
         height="100%"
         width="100%"
         y="0"
         x="0"
         transform="matrix(-1.3185842,0.09208191,-0.09208191,-1.3185842,37.371668,3520.1063)"
         xlink:href="#g1144"
         inkscape:spray-origin="#g1144"
         id="use6757" />
      <use
         height="100%"
         width="100%"
         y="0"
         x="0"
         transform="matrix(-0.22534086,-0.67424687,0.67424687,-0.22534086,-224.99062,1317.915)"
         xlink:href="#g1144"
         inkscape:spray-origin="#g1144"
         id="use6759" />
      <use
         height="100%"
         width="100%"
         y="0"
         x="0"
         transform="matrix(-0.27761035,-0.39176749,0.39176749,-0.27761035,1258.6401,2799.3293)"
         xlink:href="#g1144"
         inkscape:spray-origin="#g1144"
         id="use6761" />
      <use
         height="100%"
         width="100%"
         y="0"
         x="0"
         transform="matrix(-0.44018665,0.41699455,-0.41699455,-0.44018665,1395.1345,2190.135)"
         xlink:href="#g1144"
         inkscape:spray-origin="#g1144"
         id="use6763" />
      <use
         height="100%"
         width="100%"
         y="0"
         x="0"
         transform="matrix(-0.10664809,0.97486785,-0.97486785,-0.10664809,-345.48694,2099.9376)"
         xlink:href="#g1144"
         inkscape:spray-origin="#g1144"
         id="use6765" />
      <use
         height="100%"
         width="100%"
         y="0"
         x="0"
         transform="matrix(0.2186228,0.86828189,-0.86828189,0.2186228,-266.27728,-3062.4684)"
         xlink:href="#g1144"
         inkscape:spray-origin="#g1144"
         id="use6767" />
      <use
         height="100%"
         width="100%"
         y="0"
         x="0"
         transform="matrix(0.27853983,0.88252877,-0.88252877,0.27853983,4514.7341,3416.7722)"
         xlink:href="#g1144"
         inkscape:spray-origin="#g1144"
         id="use6769" />
      <use
         height="100%"
         width="100%"
         y="0"
         x="0"
         transform="matrix(0.45290199,0.73240385,-0.73240385,0.45290199,-429.37912,479.03285)"
         xlink:href="#g1144"
         inkscape:spray-origin="#g1144"
         id="use6771" />
      <use
         height="100%"
         width="100%"
         y="0"
         x="0"
         transform="matrix(1.0023224,-0.78616853,0.78616853,1.0023224,4208.5217,-208.66406)"
         xlink:href="#g1144"
         inkscape:spray-origin="#g1144"
         id="use6773" />
      <use
         height="100%"
         width="100%"
         y="0"
         x="0"
         transform="matrix(-0.11090316,0.68002818,-0.68002818,-0.11090316,3459.8059,3099.0838)"
         xlink:href="#g1144"
         inkscape:spray-origin="#g1144"
         id="use6775" />
      <use
         height="100%"
         width="100%"
         y="0"
         x="0"
         transform="matrix(0.03626744,1.4373732,-1.4373732,0.03626744,5096.4874,2258.5128)"
         xlink:href="#g1144"
         inkscape:spray-origin="#g1144"
         id="use6777" />
      <use
         height="100%"
         width="100%"
         y="0"
         x="0"
         transform="matrix(0.88738558,-0.43903503,0.43903503,0.88738558,4150.2879,881.17047)"
         xlink:href="#g1144"
         inkscape:spray-origin="#g1144"
         id="use6779" />
      <use
         height="100%"
         width="100%"
         y="0"
         x="0"
         transform="matrix(-1.1250325,0.35659623,-0.35659623,-1.1250325,3775.2213,4784.1385)"
         xlink:href="#g1144"
         inkscape:spray-origin="#g1144"
         id="use6781" />
      <use
         height="100%"
         width="100%"
         y="0"
         x="0"
         transform="matrix(-0.22953805,-0.96256171,0.96256171,-0.22953805,924.72943,-4552.1985)"
         xlink:href="#g1144"
         inkscape:spray-origin="#g1144"
         id="use6783" />
      <use
         height="100%"
         width="100%"
         y="0"
         x="0"
         transform="matrix(0.62112814,-1.1795482,1.1795482,0.62112814,2513.5637,-6199.33)"
         xlink:href="#g1144"
         inkscape:spray-origin="#g1144"
         id="use6785" />
      <use
         height="100%"
         width="100%"
         y="0"
         x="0"
         transform="matrix(-0.67456173,-0.1535157,0.1535157,-0.67456173,3043.0601,-2596.0579)"
         xlink:href="#g1144"
         inkscape:spray-origin="#g1144"
         id="use6787" />
      <use
         height="100%"
         width="100%"
         y="0"
         x="0"
         transform="matrix(-0.05260767,1.2048959,-1.2048959,-0.05260767,5966.2922,-2693.9302)"
         xlink:href="#g1144"
         inkscape:spray-origin="#g1144"
         id="use6789" />
      <use
         height="100%"
         width="100%"
         y="0"
         x="0"
         transform="matrix(-0.17168357,1.3622478,-1.3622478,-0.17168357,4778.8913,-2225.1937)"
         xlink:href="#g1144"
         inkscape:spray-origin="#g1144"
         id="use6791" />
      <use
         height="100%"
         width="100%"
         y="0"
         x="0"
         transform="matrix(0.24375183,0.47758805,-0.47758805,0.24375183,5055.4912,-2992.813)"
         xlink:href="#g1144"
         inkscape:spray-origin="#g1144"
         id="use6793" />
      <use
         height="100%"
         width="100%"
         y="0"
         x="0"
         transform="matrix(0.39277892,1.4810834,-1.4810834,0.39277892,7502.9276,-2847.6102)"
         xlink:href="#g1144"
         inkscape:spray-origin="#g1144"
         id="use6795" />
      <use
         height="100%"
         width="100%"
         y="0"
         x="0"
         transform="matrix(0.08120026,-0.65439799,0.65439799,0.08120026,5620.1745,-2562.3807)"
         xlink:href="#g1144"
         inkscape:spray-origin="#g1144"
         id="use6797" />
      <use
         height="100%"
         width="100%"
         y="0"
         x="0"
         transform="matrix(-0.02672034,1.2009285,-1.2009285,-0.02672034,6805.2466,-3122.9548)"
         xlink:href="#g1144"
         inkscape:spray-origin="#g1144"
         id="use6799" />
      <use
         height="100%"
         width="100%"
         y="0"
         x="0"
         transform="matrix(-0.21677269,-0.41594609,0.41594609,-0.21677269,5048.4022,-3114.6777)"
         xlink:href="#g1144"
         inkscape:spray-origin="#g1144"
         id="use6801" />
      <use
         height="100%"
         width="100%"
         y="0"
         x="0"
         transform="matrix(0.45636122,0.67898274,-0.67898274,0.45636122,7728.2227,-3905.233)"
         xlink:href="#g1144"
         inkscape:spray-origin="#g1144"
         id="use6803" />
      <use
         height="100%"
         width="100%"
         y="0"
         x="0"
         transform="matrix(0.81010285,0.16049245,-0.16049245,0.81010285,7373.8395,-3914.1665)"
         xlink:href="#g1144"
         inkscape:spray-origin="#g1144"
         id="use6805" />
      <use
         height="100%"
         width="100%"
         y="0"
         x="0"
         transform="matrix(-1.1316858,-0.40636778,0.40636778,-1.1316858,-3409.5921,-960.78958)"
         xlink:href="#g1144"
         inkscape:spray-origin="#g1144"
         id="use6807" />
      <use
         height="100%"
         width="100%"
         y="0"
         x="0"
         transform="matrix(0.74349364,1.2760222,-1.2760222,0.74349364,1275.8492,-2378.1483)"
         xlink:href="#g1144"
         inkscape:spray-origin="#g1144"
         id="use6809" />
      <use
         height="100%"
         width="100%"
         y="0"
         x="0"
         transform="matrix(-1.2641473,-0.03671845,0.03671845,-1.2641473,-1953.382,1926.1791)"
         xlink:href="#g1144"
         inkscape:spray-origin="#g1144"
         id="use6811" />
      <use
         height="100%"
         width="100%"
         y="0"
         x="0"
         transform="matrix(1.3688561,-0.06444232,0.06444232,1.3688561,-105.74601,-2669.7886)"
         xlink:href="#g1144"
         inkscape:spray-origin="#g1144"
         id="use6813" />
      <rect
         y="-1333.7073"
         x="-1938.3231"
         height="1429.2488"
         width="3266.9485"
         id="rect6129"
         style="opacity:1;fill:#ffffff;fill-opacity:1;stroke:#ffffff;stroke-width:0.40000001;stroke-miterlimit:10;stroke-dasharray:none;stroke-opacity:1" />
      <text
         id="text4165"
         y="-2.2004278"
         x="-1949.9314"
         style="font-style:normal;font-variant:normal;font-weight:normal;font-stretch:normal;font-size:31.36794281px;line-height:0%;font-family:sans-serif;-inkscape-font-specification:sans-serif;letter-spacing:0px;word-spacing:0px;fill:#000000;fill-opacity:1;stroke:none;stroke-width:2.61399531px;stroke-linecap:butt;stroke-linejoin:miter;stroke-opacity:1"
         xml:space="preserve"><tspan
           style="font-style:normal;font-variant:normal;font-weight:500;font-stretch:normal;font-size:1633.74731445px;line-height:1.25;font-family:Futura;-inkscape-font-specification:'Futura Medium';stroke-width:2.61399531px"
           y="-2.2004278"
           x="-1949.9314"
           id="tspan4167"
           sodipodi:role="line">LiPD</tspan></text>
      <rect
         y="-1333.7074"
         x="-1938.3231"
         height="1438.6461"
         width="3257.5513"
         id="rect4169"
         style="fill:none;fill-opacity:1;stroke:#000000;stroke-width:75.00000763;stroke-miterlimit:4;stroke-dasharray:none;stroke-opacity:1" />
    </g>
  </g>
</svg>
