<?xml version="1.0" encoding="UTF-8" standalone="no"?>
<svg
   xmlns:dc="http://purl.org/dc/elements/1.1/"
   xmlns:cc="http://creativecommons.org/ns#"
   xmlns:rdf="http://www.w3.org/1999/02/22-rdf-syntax-ns#"
   xmlns:svg="http://www.w3.org/2000/svg"
   xmlns="http://www.w3.org/2000/svg"
   version="1.1"
   id="svg2"
   viewBox="0 0 1634.0613 1838.2018"
   height="1838.2017"
   width="1634.0613">
  <defs
     id="defs4" />
  <metadata
     id="metadata7">
    <rdf:RDF>
      <cc:Work
         rdf:about="">
        <dc:format>image/svg+xml</dc:format>
        <dc:type
           rdf:resource="http://purl.org/dc/dcmitype/StillImage" />
        <dc:title></dc:title>
      </cc:Work>
    </rdf:RDF>
  </metadata>
  <g
     transform="translate(409.25998,72.720053)"
     id="layer1">
    <rect
       y="1124.7164"
       x="-391.96182"
       height="623.46704"
       width="1599.4648"
       id="rect4169"
       style="fill:#000000;fill-opacity:1;stroke:#000000;stroke-width:34.59654999;stroke-miterlimit:4;stroke-dasharray:none;stroke-opacity:1" />
    <text
       id="text4165"
       y="1421.9683"
       x="-405.78888"
       style="font-style:normal;font-variant:normal;font-weight:normal;font-stretch:normal;font-size:686.18847656px;line-height:85.00000238%;font-family:sans-serif;-inkscape-font-specification:sans-serif;letter-spacing:0px;word-spacing:0px;fill:#ffffff;fill-opacity:1;stroke:none;stroke-width:1px;stroke-linecap:butt;stroke-linejoin:miter;stroke-opacity:1"
       xml:space="preserve"><tspan
         style="font-style:normal;font-variant:normal;font-weight:500;font-stretch:normal;font-size:343.09423828px;line-height:85.00000238%;font-family:Futura;-inkscape-font-specification:'Futura Medium';fill:#ffffff"
         y="1421.9683"
         x="-405.78888"
         id="tspan4167"><tspan
   id="tspan4256"
   style="fill:#ff0000">Li</tspan>nked</tspan><tspan
         id="tspan4254"
         style="font-style:normal;font-variant:normal;font-weight:500;font-stretch:normal;font-size:343.09423828px;line-height:85.00000238%;font-family:Futura;-inkscape-font-specification:'Futura Medium';fill:#ffffff"
         y="1713.5984"
         x="-405.78888"><tspan
   id="tspan4258"
   style="fill:#ff0000">P</tspan>aleo<tspan
   id="tspan4260"
   style="fill:#ff0000">D</tspan>ata</tspan></text>
    <g
       id="g5041">
      <text
         xml:space="preserve"
         style="font-style:normal;font-weight:normal;font-size:1079.90649414px;line-height:125%;font-family:Sans;letter-spacing:0px;word-spacing:0px;fill:#000000;fill-opacity:1;stroke:none;stroke-width:1px;stroke-linecap:butt;stroke-linejoin:miter;stroke-opacity:1"
         x="-503.53278"
         y="755.58417"
         id="text3417"
         transform="scale(0.89234898,1.1206378)"><tspan
           id="tspan3419"
           x="-503.53278"
           y="755.58417">{</tspan></text>
      <text
         transform="scale(-0.89234898,-1.1206378)"
         id="text4323"
         y="-141.80919"
         x="-1403.2546"
         style="font-style:normal;font-weight:normal;font-size:1079.90649414px;line-height:125%;font-family:Sans;letter-spacing:0px;word-spacing:0px;fill:#000000;fill-opacity:1;stroke:none;stroke-width:1px;stroke-linecap:butt;stroke-linejoin:miter;stroke-opacity:1"
         xml:space="preserve"><tspan
           y="-141.80919"
           x="-1403.2546"
           id="tspan4325">{</tspan></text>
      <g
         transform="matrix(2.3174768,0,0,2.3174768,-97.667782,1.9433283)"
         id="g4286">
        <g
           id="g4266">
          <path
             style="fill:#0c479c;image-rendering:optimizeQuality;shape-rendering:geometricPrecision;text-rendering:geometricPrecision"
             id="path10"
             d="m 213.78895,177.18446 c 11.2515,-16.57627 18.49676,-33.01544 37.86501,-46.45462 16.74628,-13.5027 47.77252,-19.34413 50.67223,-18.13645 -13.3996,-25.03962 -11.7734,-19.50631 -27.76291,-47.399726 0,0 -11.31862,28.358871 -39.24656,46.153426 -33.61515,21.92561 -54.93032,22.64569 -54.93032,22.64569" />
          <g
             id="g4238"
             transform="translate(7.9854002,-258.35021)">
            <circle
               style="fill:#f2f2f2;fill-opacity:1;stroke:#000000;stroke-width:5;stroke-miterlimit:4;stroke-dasharray:none;stroke-opacity:1"
               id="circle4240"
               cx="319.95563"
               cy="325.41147"
               r="51.052601" />
            <path
               id="path4242"
               d="m 291.57058,300.2395 c -14.17639,15.50549 -14.47153,38.30957 -0.81866,51.21641 -6.74889,-6.50152 -6.60426,-20.03005 0.21661,-32.97354 0.88017,-1.16353 3.42319,-3.90091 7.13694,-2.65361 0.36974,0.1276 0.61907,0.15836 0.7637,0.13873 0.8396,0.17996 1.70341,0.28794 2.59079,0.24671 5.64294,-0.25653 10.00455,-5.02845 9.74999,-10.66877 -0.11714,-2.53059 -1.16615,-4.77455 -2.78254,-6.49171 13.08485,-8.57729 28.11262,-9.56545 34.26861,-3.94018 l 0.23232,0.0196 c -14.0586,-12.84664 -37.05442,-10.55295 -51.35776,5.10632 z"
               style="fill:#cccccc;stroke:#cccccc;stroke-width:0.65440565;image-rendering:optimizeQuality;shape-rendering:geometricPrecision;text-rendering:geometricPrecision" />
          </g>
        </g>
        <path
           style="fill:#0c479c;image-rendering:optimizeQuality;shape-rendering:geometricPrecision;text-rendering:geometricPrecision"
           id="path4274"
           d="m 216.0671,259.59655 c 11.2515,16.57627 18.49676,33.01544 37.86501,46.45462 16.74628,13.5027 47.77252,19.34413 50.67223,18.13645 -13.3996,25.03962 -11.7734,19.50631 -27.76291,47.39973 0,0 -11.31862,-28.35887 -39.24656,-46.15343 -33.61515,-21.92561 -54.93032,-22.64569 -54.93032,-22.64569" />
        <g
           id="g4276"
           transform="translate(5.7072412,45.404299)">
          <circle
             style="fill:#f2f2f2;fill-opacity:1;stroke:#000000;stroke-width:5;stroke-miterlimit:4;stroke-dasharray:none;stroke-opacity:1"
             id="circle4278"
             cx="319.95563"
             cy="325.41147"
             r="51.052601" />
          <path
             id="path4280"
             d="m 291.57058,300.2395 c -14.17639,15.50549 -14.47153,38.30957 -0.81866,51.21641 -6.74889,-6.50152 -6.60426,-20.03005 0.21661,-32.97354 0.88017,-1.16353 3.42319,-3.90091 7.13694,-2.65361 0.36974,0.1276 0.61907,0.15836 0.7637,0.13873 0.8396,0.17996 1.70341,0.28794 2.59079,0.24671 5.64294,-0.25653 10.00455,-5.02845 9.74999,-10.66877 -0.11714,-2.53059 -1.16615,-4.77455 -2.78254,-6.49171 13.08485,-8.57729 28.11262,-9.56545 34.26861,-3.94018 l 0.23232,0.0196 c -14.0586,-12.84664 -37.05442,-10.55295 -51.35776,5.10632 z"
             style="fill:#cccccc;stroke:#cccccc;stroke-width:0.65440565;image-rendering:optimizeQuality;shape-rendering:geometricPrecision;text-rendering:geometricPrecision" />
        </g>
        <g
           transform="translate(32.454221,4.328183)"
           id="g4252">
          <circle
             style="fill:#000000;fill-opacity:1;stroke:#000000;stroke-width:9.83935738;stroke-miterlimit:4;stroke-dasharray:none;stroke-opacity:1"
             id="circle4246"
             cx="91.193214"
             cy="212.00455"
             r="100.46495" />
          <path
             id="path4248"
             d="M 29.054533,157.67568 C -2.7404379,192.45157 -3.4023817,243.59682 27.218434,272.54443 12.081945,257.96275 12.406323,227.6208 27.704249,198.591 c 1.974056,-2.60958 7.67757,-8.74901 16.006812,-5.95156 0.829256,0.28618 1.388457,0.35518 1.712835,0.31116 1.883065,0.40361 3.820428,0.64579 5.810654,0.55332 12.656051,-0.57535 22.438318,-11.27787 21.86739,-23.92805 -0.262727,-5.67563 -2.615451,-10.70841 -6.240712,-14.55968 29.34685,-19.23724 63.051302,-21.45349 76.858032,-8.83707 l 0.52105,0.044 C 112.70952,117.41048 61.13423,122.5548 29.054533,157.67559 Z"
             style="fill:#ffffff;stroke:#cccccc;stroke-width:1.46770847;image-rendering:optimizeQuality;shape-rendering:geometricPrecision;text-rendering:geometricPrecision" />
        </g>
      </g>
    </g>
  </g>
</svg>
