<?xml version="1.0" encoding="UTF-8" standalone="no"?>
<svg
   version="1.1"
   id="svg2"
   viewBox="0 0 4404.5679 1151.0991"
   height="1151.099"
   width="4404.5679"
   sodipodi:docname="pyLiPD_logo3_svg.svg"
   xml:space="preserve"
   inkscape:version="1.3.2 (091e20e, 2023-11-25)"
   inkscape:export-filename="pyLiPD_logo1_transparent.png"
   inkscape:export-xdpi="96"
   inkscape:export-ydpi="96"
   xmlns:inkscape="http://www.inkscape.org/namespaces/inkscape"
   xmlns:sodipodi="http://sodipodi.sourceforge.net/DTD/sodipodi-0.dtd"
   xmlns="http://www.w3.org/2000/svg"
   xmlns:svg="http://www.w3.org/2000/svg"
   xmlns:rdf="http://www.w3.org/1999/02/22-rdf-syntax-ns#"
   xmlns:cc="http://creativecommons.org/ns#"
   xmlns:dc="http://purl.org/dc/elements/1.1/"><sodipodi:namedview
     id="namedview1"
     pagecolor="#ffffff"
     bordercolor="#000000"
     borderopacity="0.25"
     inkscape:showpageshadow="2"
     inkscape:pageopacity="0.0"
     inkscape:pagecheckerboard="0"
     inkscape:deskcolor="#d1d1d1"
     inkscape:zoom="0.3916389"
     inkscape:cx="2162.7065"
     inkscape:cy="550.25178"
     inkscape:window-width="2496"
     inkscape:window-height="1212"
     inkscape:window-x="0"
     inkscape:window-y="151"
     inkscape:window-maximized="0"
     inkscape:current-layer="layer1"
     inkscape:export-bgcolor="#ffffff00" /><defs
     id="defs4" /><metadata
     id="metadata7"><rdf:RDF><cc:Work
         rdf:about=""><dc:format>image/svg+xml</dc:format><dc:type
           rdf:resource="http://purl.org/dc/dcmitype/StillImage" /></cc:Work></rdf:RDF></metadata><g
     transform="translate(347.74945,72.94126)"
     id="layer1"><g
       id="g5041"
       transform="translate(20.174879,-0.21819316)"><text
         xml:space="preserve"
         style="font-style:normal;font-weight:normal;font-size:1079.91px;line-height:125%;font-family:Sans;letter-spacing:0px;word-spacing:0px;fill:#000000;fill-opacity:1;stroke:none;stroke-width:1px;stroke-linecap:butt;stroke-linejoin:miter;stroke-opacity:1"
         x="-503.53278"
         y="755.58417"
         id="text3417"
         transform="scale(0.89234898,1.1206378)"><tspan
           id="tspan3419"
           x="-503.53278"
           y="755.58417">{</tspan></text><text
         transform="scale(-0.89234898,-1.1206378)"
         id="text4323"
         y="-141.80919"
         x="-1403.2546"
         style="font-style:normal;font-weight:normal;font-size:1079.91px;line-height:125%;font-family:Sans;letter-spacing:0px;word-spacing:0px;fill:#000000;fill-opacity:1;stroke:none;stroke-width:1px;stroke-linecap:butt;stroke-linejoin:miter;stroke-opacity:1"
         xml:space="preserve"><tspan
           y="-141.80919"
           x="-1403.2546"
           id="tspan4325">{</tspan></text><g
         transform="matrix(2.3174768,0,0,2.3174768,-97.667782,1.9433283)"
         id="g4286"><g
           id="g4266"><path
             style="fill:#0c479c;image-rendering:optimizeQuality;shape-rendering:geometricPrecision;text-rendering:geometricPrecision"
             id="path10"
             d="m 213.78895,177.18446 c 11.2515,-16.57627 18.49676,-33.01544 37.86501,-46.45462 16.74628,-13.5027 47.77252,-19.34413 50.67223,-18.13645 -13.3996,-25.03962 -11.7734,-19.50631 -27.76291,-47.399726 0,0 -11.31862,28.358871 -39.24656,46.153426 -33.61515,21.92561 -54.93032,22.64569 -54.93032,22.64569" /><g
             id="g4238"
             transform="translate(7.9854002,-258.35021)"><circle
               style="fill:#f2f2f2;fill-opacity:1;stroke:#000000;stroke-width:5;stroke-miterlimit:4;stroke-dasharray:none;stroke-opacity:1"
               id="circle4240"
               cx="319.95563"
               cy="325.41147"
               r="51.052601" /><path
               id="path4242"
               d="m 291.57058,300.2395 c -14.17639,15.50549 -14.47153,38.30957 -0.81866,51.21641 -6.74889,-6.50152 -6.60426,-20.03005 0.21661,-32.97354 0.88017,-1.16353 3.42319,-3.90091 7.13694,-2.65361 0.36974,0.1276 0.61907,0.15836 0.7637,0.13873 0.8396,0.17996 1.70341,0.28794 2.59079,0.24671 5.64294,-0.25653 10.00455,-5.02845 9.74999,-10.66877 -0.11714,-2.53059 -1.16615,-4.77455 -2.78254,-6.49171 13.08485,-8.57729 28.11262,-9.56545 34.26861,-3.94018 l 0.23232,0.0196 c -14.0586,-12.84664 -37.05442,-10.55295 -51.35776,5.10632 z"
               style="fill:#cccccc;stroke:#cccccc;stroke-width:0.654406;image-rendering:optimizeQuality;shape-rendering:geometricPrecision;text-rendering:geometricPrecision" /></g></g><path
           style="fill:#0c479c;image-rendering:optimizeQuality;shape-rendering:geometricPrecision;text-rendering:geometricPrecision"
           id="path4274"
           d="m 216.0671,259.59655 c 11.2515,16.57627 18.49676,33.01544 37.86501,46.45462 16.74628,13.5027 47.77252,19.34413 50.67223,18.13645 -13.3996,25.03962 -11.7734,19.50631 -27.76291,47.39973 0,0 -11.31862,-28.35887 -39.24656,-46.15343 -33.61515,-21.92561 -54.93032,-22.64569 -54.93032,-22.64569" /><g
           id="g4276"
           transform="translate(5.7072412,45.404299)"><circle
             style="fill:#f2f2f2;fill-opacity:1;stroke:#000000;stroke-width:5;stroke-miterlimit:4;stroke-dasharray:none;stroke-opacity:1"
             id="circle4278"
             cx="319.95563"
             cy="325.41147"
             r="51.052601" /><path
             id="path4280"
             d="m 291.57058,300.2395 c -14.17639,15.50549 -14.47153,38.30957 -0.81866,51.21641 -6.74889,-6.50152 -6.60426,-20.03005 0.21661,-32.97354 0.88017,-1.16353 3.42319,-3.90091 7.13694,-2.65361 0.36974,0.1276 0.61907,0.15836 0.7637,0.13873 0.8396,0.17996 1.70341,0.28794 2.59079,0.24671 5.64294,-0.25653 10.00455,-5.02845 9.74999,-10.66877 -0.11714,-2.53059 -1.16615,-4.77455 -2.78254,-6.49171 13.08485,-8.57729 28.11262,-9.56545 34.26861,-3.94018 l 0.23232,0.0196 c -14.0586,-12.84664 -37.05442,-10.55295 -51.35776,5.10632 z"
             style="fill:#cccccc;stroke:#cccccc;stroke-width:0.654406;image-rendering:optimizeQuality;shape-rendering:geometricPrecision;text-rendering:geometricPrecision" /></g><g
           transform="translate(32.454221,4.328183)"
           id="g4252"><circle
             style="fill:#000000;fill-opacity:1;stroke:#000000;stroke-width:9.83936;stroke-miterlimit:4;stroke-dasharray:none;stroke-opacity:1"
             id="circle4246"
             cx="91.193214"
             cy="212.00455"
             r="100.46495" /></g></g><path
         style="opacity:1;fill:#0c479c;fill-opacity:1;stroke:#0c479c;stroke-width:9;stroke-dasharray:none;stroke-opacity:1"
         d="M 124.95693,721.65139 C 91.798577,716.83454 57.344179,697.4856 27.036155,666.66107 -2.306441,636.8181 -22.030753,602.07924 -32.897231,561.10467 -38.8785,538.5513 -40.712093,524.06372 -40.744608,499.10344 -40.851568,417.04285 2.5624758,339.91891 73.14893,296.77429 c 41.79251,-25.54484 96.13187,-38.39254 143.76462,-33.99092 59.46537,5.49506 109.28826,28.63393 150.70917,69.99274 33.93239,33.88155 55.36198,73.22389 65.56883,120.37734 3.97955,18.38524 5.50897,57.47436 3.02682,77.36651 -8.09397,64.86733 -45.14285,127.21102 -97.17122,163.51376 -8.6313,6.0226 -7.02454,4.13871 6.94753,-8.1458 79.43571,-69.84042 91.68221,-171.27195 79.34246,-228.86763 -4.91099,-22.92181 -11.51765,-41.37326 -22.2218,-62.06194 -31.53635,-60.95292 -88.77715,-104.23272 -158.55614,-119.88467 -13.92397,-3.12323 -20.26508,-3.61464 -46.41388,-3.59697 -25.298,0.0172 -32.89238,0.58231 -46.10637,3.43132 -44.64389,9.62551 -81.538437,29.04712 -113.419623,59.70494 -35.3472471,33.99104 -56.889288,73.07057 -67.149296,121.81671 -6.681781,31.74495 -13.649993,127.23365 60.993223,203.32358 22.823552,23.26573 47.246092,39.39356 73.242776,48.36678 13.49404,4.65762 16.08457,5.03614 34.77144,5.08047 17.57021,0.0416 21.37622,-0.4219 29.32028,-3.57232 9.87112,-3.91448 20.00652,-12.0583 23.55833,-18.92913 1.22299,-2.36589 2.21956,-7.45225 2.21453,-11.30325 -0.007,-5.59212 -0.96324,-8.08633 -4.748,-12.38923 -5.74184,-6.52758 -13.15341,-9.41386 -32.56049,-12.68019 -8.11706,-1.36614 -17.55557,-3.72453 -20.97451,-5.2407 -18.75342,-8.31727 -26.91964,-25.47402 -19.63911,-41.26031 6.78646,-14.71459 17.82505,-19.50888 48.29146,-20.97352 25.07592,-1.20556 33.75588,-3.60439 38.83506,-10.73312 3.96137,-5.56 3.89041,-9.36286 -0.25798,-13.80813 -5.52064,-5.91566 -13.33603,-8.09824 -34.45027,-9.62039 -11.06637,-0.7979 -24.39662,-2.55185 -29.62305,-3.89794 -23.78267,-6.12537 -42.17514,-20.15143 -51.131609,-38.99259 -4.671647,-9.82745 -5.028708,-11.72736 -5.048435,-26.85927 -0.01875,-14.35308 0.462638,-17.3163 4.060309,-24.99398 13.618425,-29.06336 46.122625,-42.18773 76.168485,-30.7549 13.31985,5.06837 23.22815,12.65753 48.67615,37.28299 15.9815,15.465 27.67573,25.47856 32.65281,27.95982 9.91155,4.94145 20.53505,5.21703 26.66226,0.69196 13.80504,-10.19546 8.81764,-23.09649 -13.96913,-36.1341 -17.4266,-9.97074 -30.4996,-24.82199 -32.81093,-37.27383 -1.28025,-6.89715 1.30931,-16.31927 6.90398,-25.11951 2.48602,-3.91074 4.7561,-9.15631 5.04454,-11.65685 0.8665,-7.51383 3.46577,-10.68237 15.30661,-18.65846 10.96609,-7.38678 25.8668,-12.61711 29.51794,-10.36106 0.89508,0.55302 2.89921,-0.66335 4.45375,-2.70315 2.82595,-3.70822 2.82612,-3.70825 1.92876,-0.19634 -0.49355,1.93179 -1.48084,3.87199 -2.19411,4.31155 -0.71326,0.43959 -0.89251,1.84839 -0.39833,3.13065 1.2176,3.15887 -2.42152,16.22065 -5.58591,20.05013 -1.40821,1.70408 -4.56579,6.10127 -7.01718,9.77154 -5.61971,8.41458 -11.58603,12.69122 -17.6943,12.68327 -3.72402,-0.005 -5.29294,1.00903 -7.1646,4.62978 -4.96351,9.60139 -0.76877,14.68873 22.94428,27.82689 16.58947,9.1914 28.91179,20.38751 34.19341,31.06827 2.70153,5.46313 3.51807,9.79795 3.52973,18.73839 0.0132,10.13716 -0.60171,12.72623 -4.78666,20.15453 -9.62922,17.09214 -26.32697,25.63268 -47.75627,24.42632 -21.56594,-1.21399 -41.44082,-12.31569 -71.70395,-40.05236 -19.06871,-17.47686 -26.44389,-22.72694 -35.24063,-25.08684 -5.94402,-1.59456 -7.70121,-1.42956 -13.90997,1.30625 -5.56146,2.45057 -7.82981,4.62655 -10.43396,10.00879 -4.37002,9.03253 -4.19079,15.94092 0.66556,25.65277 2.82759,5.65473 6.09055,9.29893 11.27684,12.59498 9.42693,5.99085 16.13226,7.68114 37.74764,9.51568 19.45098,1.65088 31.42275,4.63954 41.19063,10.28329 30.38979,17.55847 26.484,58.98742 -6.98891,74.13342 -6.04568,2.73553 -11.21711,3.31145 -35.87387,3.9943 -31.37983,0.86903 -36.1085,2.12713 -38.11299,10.14045 -2.417,9.66284 6.38097,17.49155 23.47592,20.88931 16.58161,3.29584 25.44812,6.37197 32.91234,11.41859 14.87233,10.05524 18.91872,28.25124 9.81323,44.12879 -7.94533,13.85469 -22.4686,21.82082 -45.5805,25.00101 -13.50846,1.85885 -17.8729,1.8461 -31.20972,-0.0919 z"
         id="path1"
         sodipodi:nodetypes="ssssssssssssssssssssssssssssssssssssssssssssssssssssssssssssssssssssssssssss"
         inkscape:label="path1" /></g><text
       id="text4165"
       y="802.5752"
       x="1113.2944"
       style="font-style:normal;font-variant:normal;font-weight:normal;font-stretch:normal;font-size:1898.29px;line-height:125%;font-family:sans-serif;-inkscape-font-specification:sans-serif;letter-spacing:0px;word-spacing:0px;fill:#1a1a1a;fill-opacity:1;stroke:none;stroke-width:1.55506px;stroke-linecap:butt;stroke-linejoin:miter;stroke-opacity:1"
       xml:space="preserve"
       transform="scale(1.0238679,0.97668849)"
       inkscape:label="text4165"><tspan
         style="font-style:normal;font-variant:normal;font-weight:500;font-stretch:normal;font-size:949.143px;font-family:Futura;-inkscape-font-specification:'Futura Medium';fill:#1a1a1a;stroke-width:1.55506px"
         y="802.5752"
         x="1113.2944"
         id="tspan4167">PyLiPD</tspan></text></g></svg>
